<?xml version="1.0" standalone="no"?>
<!DOCTYPE svg PUBLIC "-//W3C//DTD SVG 20010904//EN"
 "http://www.w3.org/TR/2001/REC-SVG-20010904/DTD/svg10.dtd">
<svg version="1.0" xmlns="http://www.w3.org/2000/svg"
 width="700.000000pt" height="700.000000pt" viewBox="0 0 700.000000 700.000000"
 preserveAspectRatio="xMidYMid meet">
<metadata>
Created by potrace 1.14, written by Peter Selinger 2001-2017
</metadata>
<g transform="translate(0.000000,700.000000) scale(0.100000,-0.100000)"
fill="#000000" stroke="none">
<path d="M3374 6939 c3 -12 -3 -18 -20 -22 -13 -2 -24 0 -24 6 0 5 -6 4 -14
-2 -10 -8 -16 -9 -21 -1 -3 5 -12 10 -18 10 -7 0 -6 -4 3 -10 13 -8 12 -10 -2
-10 -10 0 -18 6 -18 13 0 9 -2 9 -8 0 -4 -6 -20 -10 -35 -9 -15 2 -27 -1 -27
-7 0 -5 -8 -3 -17 4 -9 8 -14 9 -10 2 5 -8 -3 -11 -28 -9 -19 2 -36 -2 -39 -8
-3 -6 -5 -5 -5 3 -1 11 -4 11 -18 0 -9 -8 -14 -9 -10 -3 3 6 0 11 -8 11 -8 0
-12 -4 -9 -8 2 -4 0 -10 -6 -14 -5 -3 -10 1 -10 9 0 9 -4 16 -10 16 -5 0 -7
-6 -4 -13 3 -9 -8 -12 -41 -12 -25 1 -45 -3 -45 -8 0 -5 -16 -7 -35 -4 -19 3
-32 1 -29 -4 5 -9 -23 -14 -58 -11 -10 1 -18 -3 -18 -8 0 -6 -5 -10 -11 -10
-5 0 -7 6 -3 13 5 8 2 8 -9 -2 -9 -7 -17 -11 -17 -8 0 3 -12 0 -27 -8 -19 -10
-32 -11 -46 -3 -12 6 -17 6 -13 0 3 -5 -1 -12 -9 -16 -8 -3 -15 0 -15 7 0 7
-5 4 -11 -5 -11 -21 -30 -24 -25 -5 1 6 1 9 -1 4 -3 -4 -9 -5 -14 -1 -5 3 -8
0 -7 -6 2 -7 -23 -20 -59 -30 -43 -11 -63 -14 -63 -6 0 6 -5 4 -10 -5 -5 -9
-22 -20 -37 -25 -35 -9 -34 -9 -55 -18 -10 -5 -25 -5 -34 -2 -8 3 -13 2 -10
-3 3 -4 -6 -13 -19 -19 -15 -7 -25 -8 -25 -2 0 6 -5 10 -11 10 -5 0 -7 -5 -4
-10 6 -10 -35 -30 -67 -33 -10 -1 -18 -5 -18 -10 0 -5 -7 -6 -16 -3 -8 3 -13
2 -10 -3 7 -11 -22 -23 -35 -15 -5 3 -9 0 -9 -6 0 -8 -9 -10 -25 -6 -15 4 -25
2 -25 -4 0 -6 5 -8 10 -5 6 3 10 2 10 -3 0 -13 -48 -25 -63 -16 -7 4 -9 4 -5
-1 4 -4 3 -14 -3 -22 -10 -11 -15 -11 -27 -1 -13 11 -14 11 -7 -1 6 -11 4 -13
-9 -8 -11 5 -15 3 -10 -5 5 -7 2 -9 -9 -5 -12 4 -14 2 -10 -11 6 -15 5 -15
-10 -3 -15 12 -17 12 -11 -3 3 -9 2 -16 -4 -16 -6 0 -13 6 -15 13 -4 9 -6 9
-6 -1 -1 -7 -5 -10 -11 -7 -6 4 -7 -1 -3 -12 6 -16 5 -16 -10 -4 -15 12 -17
12 -11 -4 6 -16 3 -17 -22 -11 -19 4 -24 3 -15 -2 16 -12 -3 -27 -21 -16 -6 4
-8 3 -5 -3 8 -13 -20 -26 -35 -16 -7 3 -8 1 -4 -5 8 -13 -30 -36 -44 -27 -6 4
-7 -1 -3 -12 6 -16 5 -16 -10 -4 -15 12 -17 12 -11 -4 5 -13 4 -16 -4 -11 -7
4 -12 3 -12 -2 0 -5 -12 -18 -27 -28 -20 -13 -25 -13 -18 -3 6 8 1 5 -10 -8
-12 -13 -24 -23 -29 -23 -4 0 -22 -11 -38 -25 -16 -14 -34 -23 -39 -19 -5 3
-9 -2 -9 -10 0 -9 -5 -16 -11 -16 -6 0 -8 7 -5 16 3 9 2 12 -4 9 -6 -4 -9 -14
-8 -23 2 -9 -4 -17 -12 -17 -8 -1 -14 -7 -12 -15 3 -11 1 -11 -13 0 -9 7 -15
9 -14 4 3 -18 -1 -37 -7 -31 -3 3 -17 -7 -31 -24 -14 -16 -29 -29 -34 -29 -10
0 -44 -26 -68 -52 -8 -10 -21 -18 -28 -18 -7 0 -12 -3 -11 -7 2 -5 -1 -9 -6
-10 -5 0 -13 -8 -18 -17 -5 -9 -15 -16 -23 -16 -10 0 -12 -6 -8 -17 6 -16 5
-17 -12 -3 -10 8 -16 10 -12 3 9 -15 -38 -67 -53 -58 -6 3 -10 3 -9 -2 3 -20
-2 -34 -11 -28 -5 3 -10 -1 -10 -9 0 -9 -6 -16 -14 -16 -8 0 -18 -5 -22 -12
-5 -7 -3 -8 7 -3 8 5 -2 -7 -21 -26 -19 -19 -41 -45 -49 -56 -8 -12 -18 -20
-22 -17 -4 2 -10 -5 -14 -15 -3 -11 -15 -23 -27 -27 -16 -5 -18 -8 -7 -15 11
-7 10 -9 -4 -9 -10 0 -21 -11 -26 -23 -5 -13 -25 -40 -44 -60 -19 -21 -32 -37
-28 -37 3 0 -2 -5 -12 -11 -9 -6 -15 -14 -12 -19 3 -4 -2 -11 -11 -14 -10 -4
-13 -2 -8 7 4 7 3 8 -2 4 -5 -5 -9 -16 -9 -25 0 -9 -5 -16 -12 -15 -7 2 -10
-4 -7 -12 4 -8 1 -15 -5 -15 -6 0 -11 -7 -11 -15 0 -8 -4 -15 -9 -15 -5 0 -14
-13 -21 -29 -6 -16 -18 -32 -25 -35 -8 -3 -22 -23 -33 -46 -10 -22 -21 -38
-24 -35 -3 3 -8 -8 -11 -25 -4 -17 -13 -30 -21 -30 -10 0 -13 -6 -9 -17 4 -10
2 -14 -4 -10 -6 4 -14 0 -17 -9 -4 -10 -2 -13 6 -8 7 5 8 3 3 -7 -20 -34 -51
-75 -63 -84 -7 -6 -13 -15 -12 -20 5 -24 -1 -37 -15 -32 -8 4 -17 1 -21 -5 -4
-6 -3 -8 4 -4 6 3 13 2 17 -4 3 -5 -2 -10 -12 -10 -14 0 -15 -2 -5 -9 11 -7
11 -11 0 -22 -7 -8 -14 -21 -16 -29 -2 -7 -10 -19 -18 -25 -9 -6 -15 -15 -14
-20 5 -22 -1 -36 -11 -29 -7 4 -9 0 -5 -14 4 -12 1 -26 -9 -36 -9 -9 -14 -16
-10 -16 3 0 0 -10 -7 -22 -7 -13 -11 -26 -10 -30 1 -5 -2 -8 -8 -8 -5 0 -7 -7
-4 -15 4 -8 1 -15 -6 -15 -6 0 -8 -4 -5 -10 3 -5 2 -10 -4 -10 -6 0 -7 -7 -4
-17 5 -12 3 -14 -7 -8 -10 6 -12 4 -7 -8 3 -10 2 -17 -3 -17 -5 0 -7 -7 -4
-15 4 -10 0 -15 -12 -16 -11 0 -14 -3 -8 -5 12 -5 -4 -84 -18 -84 -4 0 -5 8
-1 18 3 9 3 14 -1 11 -11 -10 -16 -50 -5 -44 5 4 9 1 9 -4 0 -6 -5 -11 -11
-11 -6 0 -8 -7 -5 -16 4 -9 2 -13 -5 -8 -7 4 -9 0 -5 -14 4 -11 2 -23 -4 -27
-6 -3 -8 -11 -5 -16 4 -5 2 -9 -3 -9 -6 0 -9 -8 -8 -17 0 -11 -5 -17 -14 -15
-12 3 -13 1 -3 -9 15 -15 17 -33 4 -25 -5 4 -7 -4 -3 -16 3 -14 2 -19 -6 -14
-7 4 -12 2 -12 -3 0 -6 6 -11 13 -12 6 -1 1 -5 -13 -9 -14 -4 -18 -8 -9 -9 9
-1 16 -8 16 -16 0 -10 -6 -14 -15 -10 -12 5 -13 3 -2 -10 11 -14 11 -21 -5
-47 -10 -17 -12 -28 -5 -23 9 6 10 3 1 -12 -6 -11 -7 -24 -3 -28 4 -5 -2 -5
-13 -2 -19 7 -19 6 -2 -7 15 -11 15 -15 3 -19 -8 -3 -17 -2 -20 4 -2 5 -3 4
-2 -3 2 -7 9 -12 15 -11 6 2 11 -4 11 -13 0 -8 -4 -12 -10 -9 -5 3 -10 2 -10
-4 0 -5 6 -12 13 -14 9 -4 9 -6 -1 -6 -7 -1 -10 -6 -7 -12 4 -6 -1 -17 -11
-25 -17 -13 -17 -13 -1 -8 13 5 16 2 11 -10 -3 -9 -11 -13 -16 -10 -7 5 -7 1
-1 -10 11 -20 4 -88 -8 -80 -5 3 -9 0 -9 -5 0 -6 6 -11 13 -12 6 0 3 -4 -8 -9
-18 -8 -18 -9 -2 -9 14 -1 16 -5 7 -20 -5 -11 -7 -27 -3 -37 4 -10 2 -15 -3
-11 -6 3 -8 -9 -6 -30 3 -21 1 -33 -5 -30 -5 3 -10 0 -10 -8 0 -8 4 -12 9 -9
4 3 8 1 8 -5 0 -5 -6 -12 -12 -14 -10 -4 -10 -6 0 -6 6 -1 12 -6 12 -12 0 -6
-7 -8 -17 -5 -15 6 -15 5 -2 -11 13 -16 15 -36 10 -91 0 -7 -5 -10 -11 -7 -6
3 -7 -1 -4 -9 3 -9 10 -14 14 -11 5 3 5 -7 1 -22 -5 -16 -7 -38 -5 -50 2 -13
-1 -23 -7 -23 -5 0 -8 4 -4 9 3 5 1 12 -4 15 -16 10 -6 -20 12 -38 9 -10 14
-23 10 -29 -11 -18 -9 -107 2 -107 7 0 7 -3 0 -8 -12 -8 -19 -55 -7 -48 4 2 8
-9 8 -25 1 -16 -2 -26 -7 -23 -5 3 -9 0 -9 -5 0 -6 5 -11 11 -11 6 0 9 -6 6
-14 -3 -7 0 -19 6 -26 10 -10 7 -12 -11 -7 -12 3 -20 1 -16 -4 3 -5 12 -9 20
-9 12 0 14 -8 10 -34 -3 -19 -2 -37 2 -40 5 -3 10 -22 11 -43 2 -49 5 -65 14
-80 4 -6 3 -15 -3 -18 -8 -5 -7 -12 2 -23 8 -10 9 -13 1 -9 -6 4 -15 2 -19 -4
-4 -7 -3 -9 3 -6 6 4 16 0 23 -8 9 -11 9 -15 1 -15 -7 0 -9 -5 -4 -12 8 -14 9
-16 18 -63 6 -28 20 -86 32 -130 l5 -20 -17 20 c-16 19 -16 19 -1 -5 34 -53
38 -63 27 -56 -6 4 -11 2 -11 -3 0 -6 5 -11 11 -11 5 0 7 -4 4 -10 -3 -6 0
-10 7 -10 9 0 9 -3 -2 -10 -10 -6 -11 -10 -2 -10 7 0 12 -13 12 -30 0 -16 5
-30 11 -30 8 0 7 -5 -1 -15 -7 -9 -10 -18 -6 -22 3 -3 6 0 6 7 0 13 14 5 16
-8 0 -4 4 -15 7 -24 15 -38 16 -49 7 -43 -6 3 -7 -1 -4 -10 4 -9 9 -13 12 -10
11 11 29 -59 18 -73 -7 -9 -5 -12 5 -10 8 2 13 -3 12 -9 -2 -7 2 -13 9 -13 6
0 8 -3 5 -7 -4 -3 -1 -13 6 -21 9 -13 9 -14 0 -8 -7 4 -13 3 -13 -1 0 -5 9
-14 20 -21 11 -7 17 -18 14 -27 -4 -8 -1 -15 6 -15 7 0 10 -7 6 -15 -3 -8 1
-21 9 -29 8 -7 11 -16 8 -20 -4 -3 0 -6 8 -6 11 0 11 -2 -1 -10 -13 -8 -12
-10 3 -10 10 0 17 -8 17 -18 0 -10 6 -24 13 -31 10 -11 9 -13 -3 -7 -8 4 -4
-1 9 -12 13 -10 22 -25 19 -33 -3 -8 1 -19 9 -24 8 -6 15 -23 17 -38 1 -15 6
-30 11 -35 4 -4 5 -1 0 7 -6 10 -4 12 4 6 7 -4 11 -16 8 -26 -3 -10 0 -17 6
-16 6 1 15 -7 21 -18 28 -50 47 -85 48 -92 1 -5 10 -17 20 -27 10 -11 18 -24
18 -29 0 -4 7 -15 15 -23 16 -17 21 -39 6 -29 -5 3 -13 0 -17 -7 -4 -7 -4 -10
1 -6 4 4 15 2 23 -5 13 -10 14 -9 7 3 -8 13 -7 13 8 1 9 -7 17 -21 17 -31 0
-10 7 -21 16 -24 9 -4 14 -13 10 -21 -3 -8 -2 -14 2 -12 4 1 7 -1 7 -5 0 -4
10 -15 23 -23 12 -9 22 -22 22 -28 0 -7 10 -18 21 -26 18 -10 19 -15 8 -22
-11 -7 -11 -9 3 -9 9 0 20 -5 24 -12 5 -7 3 -8 -6 -3 -9 5 -11 4 -6 -3 4 -7
13 -12 19 -12 15 0 49 -55 40 -64 -3 -3 1 -6 10 -6 18 0 40 -33 29 -44 -3 -4
1 -4 11 0 12 4 17 1 17 -10 0 -8 9 -20 20 -26 12 -7 17 -16 13 -27 -4 -11 -2
-14 5 -9 6 3 16 -3 22 -14 6 -11 16 -17 22 -14 7 5 9 2 5 -9 -3 -9 -3 -16 1
-15 9 3 62 -43 62 -54 0 -5 -5 -6 -12 -2 -7 4 -8 3 -4 -4 4 -6 13 -9 21 -5 13
4 20 -7 16 -29 0 -4 5 -5 13 -2 8 3 17 0 22 -7 5 -8 3 -10 -6 -4 -9 5 -11 4
-6 -3 4 -7 11 -12 17 -12 15 0 59 -43 59 -57 0 -8 5 -11 10 -8 6 3 13 -1 16
-9 3 -9 11 -16 16 -16 6 0 27 -18 48 -40 21 -22 43 -40 49 -40 7 0 9 -4 6 -10
-3 -5 3 -10 15 -10 12 0 18 -4 15 -10 -3 -5 -1 -10 5 -10 6 0 18 -6 26 -14 11
-11 11 -16 1 -20 -6 -3 -1 -4 13 -3 18 1 28 -5 35 -20 5 -13 16 -23 23 -23 19
0 63 -31 57 -40 -3 -4 3 -7 13 -6 10 0 16 -5 14 -13 -2 -9 3 -11 14 -7 12 5
15 2 10 -9 -3 -9 -2 -13 4 -10 6 3 10 0 10 -7 0 -9 3 -9 10 2 6 10 10 11 10 3
0 -7 7 -13 15 -13 9 0 20 -10 25 -23 5 -13 9 -16 10 -7 0 13 2 13 9 0 6 -8 7
-18 5 -22 -3 -4 -1 -8 5 -8 5 0 11 5 13 10 2 6 13 2 25 -10 12 -11 27 -20 32
-20 5 0 13 -5 17 -12 5 -7 3 -8 -6 -3 -8 5 -11 4 -7 -3 4 -5 17 -8 29 -4 14 3
19 2 14 -6 -4 -8 0 -12 11 -12 23 -1 55 -25 45 -35 -4 -4 2 -5 14 -1 13 4 29
-1 43 -13 13 -11 38 -25 57 -31 20 -7 31 -16 27 -23 -4 -6 0 -8 10 -4 21 8 34
-12 16 -24 -8 -5 -11 -9 -6 -9 4 0 16 5 27 12 15 10 22 9 37 -4 10 -8 30 -18
44 -22 16 -3 29 -15 32 -28 5 -17 9 -19 21 -9 12 10 19 9 39 -3 13 -9 27 -13
30 -9 4 3 7 -2 8 -13 0 -13 2 -15 6 -5 4 10 10 5 19 -15 8 -16 11 -20 9 -8 -5
20 -3 21 30 10 19 -6 35 -18 36 -26 0 -10 2 -11 6 -2 2 6 9 12 14 12 4 0 6 -6
3 -13 -3 -8 2 -14 10 -14 8 0 13 4 10 9 -3 4 0 8 5 8 6 0 11 -5 11 -11 0 -5 5
-7 10 -4 6 3 10 2 10 -4 0 -6 7 -8 15 -5 8 4 21 2 28 -4 6 -5 36 -15 65 -23
34 -8 52 -18 53 -28 0 -12 3 -10 9 4 5 12 9 14 9 6 1 -8 4 -11 7 -8 11 10 45
-13 38 -25 -4 -7 -3 -8 5 -4 6 4 9 12 6 17 -4 5 -2 9 3 9 17 0 22 -13 10 -29
-10 -13 -9 -13 7 1 15 12 25 14 38 7 9 -6 14 -15 11 -21 -4 -7 -2 -8 5 -4 6 4
9 12 6 17 -4 5 -2 9 4 9 5 0 15 -8 20 -17 6 -10 11 -13 11 -6 0 6 9 9 20 6 11
-3 17 -10 13 -17 -3 -6 0 -6 8 1 15 15 33 17 25 4 -3 -4 9 -9 27 -9 64 -1 87
-5 87 -13 0 -5 11 -7 25 -3 16 4 25 2 25 -6 0 -6 -6 -8 -12 -4 -7 4 -9 3 -5
-1 10 -12 38 -15 31 -4 -3 5 7 9 23 9 22 0 25 -2 13 -10 -8 -5 -10 -10 -5 -10
6 0 16 5 23 12 7 7 12 8 12 2 0 -7 19 -10 46 -9 45 3 45 3 27 -18 -18 -19 -18
-20 5 -6 12 8 22 17 22 20 0 4 15 3 33 -1 18 -4 31 -12 29 -19 -1 -7 2 -10 8
-6 6 3 8 11 5 16 -4 5 -1 9 4 9 6 0 11 -6 11 -12 0 -8 3 -9 8 -3 9 13 32 17
32 6 0 -10 25 -9 35 1 4 3 19 3 34 -2 15 -4 35 -3 44 2 11 6 17 5 17 -2 0 -6
4 -9 9 -6 5 4 11 1 13 -6 2 -6 16 -12 30 -12 15 -1 24 2 21 7 -3 5 -14 7 -24
4 -11 -3 -19 -1 -19 5 0 11 70 6 90 -7 9 -6 11 -4 5 5 -5 8 -3 11 6 8 8 -3 13
-11 11 -17 -1 -7 2 -10 8 -6 6 3 8 11 5 16 -4 5 0 9 8 9 8 0 18 -7 21 -16 5
-12 10 -14 20 -5 7 6 16 8 20 4 4 -4 5 -1 1 7 -4 12 4 15 37 16 24 0 46 -4 50
-10 5 -7 8 -7 8 2 0 6 5 12 11 12 5 0 7 -6 3 -13 -6 -9 -5 -9 7 -1 20 17 99
24 99 10 0 -8 2 -8 8 0 4 6 14 11 22 12 43 3 78 9 87 15 5 3 22 4 36 2 14 -3
29 0 32 5 5 8 12 7 23 -2 12 -10 14 -10 8 0 -4 7 -2 12 8 12 8 0 17 -6 19 -12
4 -9 6 -7 6 3 1 9 7 16 14 17 32 2 80 11 85 16 3 3 12 0 20 -7 11 -8 14 -8 9
0 -4 6 -3 14 3 18 5 3 10 1 10 -6 0 -10 3 -10 12 -1 17 17 31 15 24 -4 -3 -8
-2 -12 4 -9 6 3 10 13 10 21 0 8 4 13 8 10 4 -2 14 -1 22 4 9 5 19 5 27 -2 8
-6 16 -8 20 -4 3 3 1 6 -6 6 -7 0 -9 5 -6 10 5 8 12 7 23 -2 13 -11 14 -11 7
1 -6 11 -4 13 8 8 9 -3 17 -2 19 4 3 9 37 20 71 22 9 1 17 4 17 8 0 4 8 6 17
5 10 -2 31 6 49 16 19 11 39 16 49 11 13 -4 16 -3 11 6 -5 8 -3 11 5 10 8 -2
34 6 59 18 64 29 82 34 75 23 -3 -6 1 -7 9 -4 9 3 14 10 11 15 -3 4 10 11 30
15 19 3 35 10 35 16 0 5 5 6 10 3 6 -3 10 -1 10 6 0 7 3 9 6 6 4 -3 16 0 27 8
15 11 24 12 34 3 11 -9 12 -7 7 7 -5 13 -4 16 4 11 7 -4 12 -2 12 5 0 8 4 8
15 -1 13 -11 15 -10 11 1 -7 19 79 60 94 45 8 -8 9 -6 5 5 -5 13 9 24 59 48
36 17 66 36 66 41 0 6 5 10 11 10 8 0 8 -4 1 -13 -7 -8 -8 -18 -1 -27 9 -13
10 -13 8 0 -4 27 12 49 29 43 9 -4 14 -3 10 2 -4 4 3 16 15 25 16 13 24 15 29
7 5 -8 8 -6 8 5 0 10 9 22 20 28 11 6 20 7 20 3 0 -4 7 3 16 15 15 22 52 32
38 10 -4 -7 -3 -8 4 -4 6 4 9 13 5 21 -5 14 13 21 40 16 5 -1 6 2 4 6 -2 5 5
17 16 28 11 11 17 15 13 8 -3 -6 -1 -15 5 -19 7 -4 9 -3 6 3 -8 13 20 53 38
53 8 0 18 7 23 17 6 10 16 14 26 10 11 -4 15 -3 11 4 -4 5 -1 16 5 25 10 12
16 12 28 2 13 -11 14 -11 8 0 -11 18 40 72 65 67 13 -3 16 1 12 12 -5 12 -2
15 10 10 11 -4 14 -2 10 8 -3 9 3 18 13 22 22 8 44 28 45 40 0 4 14 19 31 32
22 18 32 21 38 12 5 -10 9 -9 13 4 4 9 3 13 -3 10 -6 -3 -10 -1 -10 4 0 6 7
11 15 11 8 0 14 6 12 13 -1 6 6 11 15 11 10 -1 16 2 13 6 -8 13 42 63 55 55 9
-5 11 -4 6 4 -5 7 6 24 26 43 18 17 26 28 18 23 -13 -8 -13 -6 -1 8 7 9 17 14
22 11 5 -3 9 0 9 6 0 6 5 8 12 4 6 -4 8 -3 5 4 -4 5 -4 17 -1 26 5 12 10 14
19 6 11 -9 12 -7 8 9 -4 15 -1 21 12 21 12 0 15 5 11 16 -5 12 -2 15 11 10 10
-4 14 -4 11 0 -12 11 12 46 28 40 8 -3 14 -1 14 4 0 6 -5 10 -11 10 -7 0 -1
10 13 23 13 12 27 30 31 40 3 9 11 17 17 17 5 0 10 6 10 14 0 8 15 29 33 47
17 18 25 29 17 25 -9 -4 -8 -2 2 7 10 8 14 18 10 22 -4 5 1 5 11 2 10 -4 16
-3 12 2 -3 5 -1 12 5 16 5 3 10 15 10 27 0 13 5 18 14 15 11 -4 13 -1 9 10 -4
10 -2 14 4 10 7 -5 9 0 6 13 -3 12 0 20 6 20 7 0 9 -5 5 -12 -4 -7 -3 -8 4 -4
6 4 8 14 5 23 -4 9 1 21 12 29 10 8 15 14 9 14 -5 0 2 10 16 21 14 11 19 18
13 14 -19 -9 -15 6 7 35 11 14 20 31 20 38 0 6 5 12 11 12 5 0 7 -5 3 -12 -4
-7 -3 -8 5 -4 6 4 9 11 6 16 -7 11 15 71 25 65 4 -3 7 1 6 8 0 6 4 13 9 15 6
1 10 -2 10 -7 0 -5 3 -12 7 -16 3 -4 5 0 4 9 -1 8 -5 19 -9 22 -10 11 -8 36 2
29 5 -3 12 -1 16 5 3 5 1 10 -4 10 -6 0 -11 5 -11 11 0 6 6 9 13 6 8 -3 13 4
12 22 0 16 5 25 13 23 7 -1 12 3 11 10 -4 21 12 78 22 78 5 0 8 5 6 12 -1 7 3
12 10 13 6 0 15 4 20 9 5 5 3 6 -4 2 -8 -5 -13 -1 -13 9 0 12 5 15 16 11 15
-6 15 -4 3 10 -11 14 -11 18 4 29 14 10 15 14 5 18 -11 4 -11 6 0 6 7 1 10 5
7 11 -3 5 2 10 12 11 10 0 13 3 6 6 -20 8 -15 26 5 21 11 -3 19 0 19 7 0 7 -6
11 -13 8 -9 -3 -10 5 -2 36 6 22 14 38 19 35 5 -3 6 1 3 9 -3 8 0 18 5 22 6 3
9 11 6 16 -4 5 -3 15 2 22 8 12 9 17 12 38 0 5 7 7 14 3 8 -5 8 -2 -2 9 -12
15 -11 17 5 17 16 0 17 2 4 10 -13 9 -13 10 0 10 12 0 12 2 2 9 -11 7 -9 13
10 31 12 13 17 20 11 16 -14 -8 -19 19 -5 28 4 2 9 17 10 33 3 30 9 68 12 68
1 0 4 13 6 29 3 16 9 37 15 47 12 23 11 32 -2 23 -8 -4 -8 0 0 15 6 11 13 38
15 58 3 21 5 38 6 38 4 0 11 49 10 73 0 12 6 22 13 22 9 0 8 3 -2 9 -10 7 -8
12 10 26 l24 17 -25 -8 c-22 -6 -23 -5 -11 10 7 9 10 16 6 16 -4 0 -3 6 4 13
8 10 7 17 -1 25 -8 8 -8 15 1 26 9 11 9 15 -1 19 -8 4 -9 6 -1 6 6 1 9 10 5
23 -3 14 -2 19 6 14 7 -4 12 -3 12 3 0 5 -6 12 -12 14 -10 4 -9 8 2 16 13 10
13 12 0 21 -13 9 -13 10 0 10 13 0 13 1 0 11 -12 8 -10 10 10 5 l25 -5 -25 19
c-23 18 -21 25 4 21 5 -1 4 4 -2 12 -7 8 -9 17 -5 20 3 4 0 14 -8 23 -12 15
-11 16 11 10 18 -5 21 -5 11 3 -20 13 -25 62 -9 72 10 7 9 9 -3 9 -12 0 -15 7
-11 25 2 14 9 22 14 19 6 -4 5 3 -1 14 -6 12 -11 25 -10 29 1 4 0 10 -1 13 -7
20 -7 40 1 40 6 0 7 5 3 12 -13 21 -14 62 -1 70 9 6 9 8 0 8 -7 0 -13 7 -13
16 0 8 4 12 10 9 6 -3 7 1 4 9 -3 9 -9 14 -13 12 -4 -3 -6 12 -5 32 1 20 -3
47 -7 60 -5 13 -5 22 1 22 6 0 5 8 -2 19 -9 15 -9 23 3 37 8 10 9 15 2 11 -6
-4 -14 -3 -18 3 -3 5 -1 10 5 10 7 0 6 9 -3 28 -7 15 -13 34 -12 42 1 8 -2 27
-6 43 -6 20 -4 26 4 21 9 -5 9 -4 0 6 -6 7 -9 19 -6 26 3 8 0 14 -6 14 -6 0
-11 11 -11 24 0 14 -4 36 -10 50 -7 19 -6 26 3 26 8 0 8 3 -2 9 -8 5 -14 23
-15 40 0 17 -5 31 -10 31 -4 0 -6 11 -4 25 3 14 1 28 -5 32 -6 4 -7 1 -2 -7 5
-9 4 -11 -4 -6 -9 6 -9 11 0 22 6 8 7 14 2 14 -6 0 -16 21 -23 46 -11 39 -11
47 1 56 11 8 10 9 -3 4 -10 -3 -18 -4 -18 -3 0 1 -4 17 -10 35 -7 26 -6 32 3
25 7 -4 5 0 -6 9 -10 9 -19 27 -20 40 -1 13 -7 29 -14 36 -7 7 -16 31 -19 53
-4 21 -10 39 -15 39 -5 0 -9 8 -9 18 0 10 -6 24 -12 31 -11 11 -10 12 2 6 12
-7 12 -5 -1 11 -26 32 -34 48 -18 39 8 -5 3 4 -11 20 -14 16 -20 25 -13 21 6
-3 15 -2 18 4 4 6 3 10 -2 9 -25 -4 -35 1 -24 15 9 10 5 17 -14 32 -14 10 -25
26 -25 35 0 9 -9 28 -21 43 -11 15 -19 33 -16 40 3 8 -1 17 -9 20 -8 3 -14 10
-14 16 0 6 5 8 12 4 7 -4 8 -3 4 5 -4 6 -11 9 -16 6 -5 -3 -11 -1 -14 4 -4 5
-2 12 4 16 14 9 3 25 -13 20 -7 -3 -17 7 -24 21 -11 25 -11 25 5 13 10 -8 5
-2 -12 13 -28 26 -28 27 -7 23 13 -2 20 -1 17 3 -4 4 -12 8 -17 8 -5 1 -13 2
-19 3 -5 0 -6 8 -3 18 4 11 3 14 -5 9 -11 -6 -17 5 -13 27 0 4 -6 7 -15 7 -8
0 -12 5 -9 10 3 6 1 10 -4 10 -6 0 -11 6 -11 14 0 7 -6 19 -14 26 -8 6 -12 19
-9 27 4 11 2 14 -5 9 -13 -8 -35 27 -24 39 4 5 2 5 -4 2 -7 -4 -18 1 -25 10
-12 14 -12 16 1 9 8 -4 7 -1 -3 7 -35 29 -105 131 -99 146 3 9 1 12 -6 7 -14
-9 -54 34 -47 52 2 7 1 10 -5 7 -5 -3 -15 2 -22 10 -7 9 -19 22 -25 30 -7 7
-13 19 -13 25 0 6 -5 8 -11 4 -8 -4 -9 1 -5 17 3 13 3 18 0 12 -3 -7 -11 -13
-16 -13 -6 0 -9 2 -6 5 3 3 -41 52 -98 108 -57 56 -102 107 -100 114 3 7 -1
10 -8 7 -8 -3 -20 4 -28 15 -8 12 -18 18 -21 14 -4 -3 -7 -1 -7 5 0 7 -8 12
-17 12 -15 0 -16 2 -3 10 13 9 13 10 0 11 -8 1 -18 1 -22 0 -15 -2 -8 18 10
28 23 14 6 14 -19 1 -22 -12 -25 -1 -6 20 10 12 9 12 -7 0 -16 -13 -20 -12
-36 8 -10 12 -23 22 -29 22 -13 0 -42 41 -35 52 3 4 0 8 -6 8 -7 0 -10 -7 -6
-17 4 -12 -1 -9 -15 7 -11 14 -17 18 -13 10 7 -15 -8 -3 -63 50 -15 14 -23 18
-19 10 4 -8 0 -6 -8 4 -9 11 -16 16 -16 11 0 -4 -9 0 -20 10 -11 10 -17 21
-15 26 3 4 0 11 -6 15 -8 4 -9 3 -5 -4 13 -21 -14 -12 -39 13 -14 13 -25 21
-25 18 0 -4 -12 4 -27 18 -14 13 -23 18 -19 11 7 -11 4 -11 -13 0 -12 7 -21
18 -21 25 0 7 -5 13 -11 13 -5 0 -7 -6 -3 -12 5 -8 1 -8 -12 2 -10 8 -21 16
-23 17 -2 2 4 13 15 25 19 23 19 23 -2 6 -23 -20 -44 -23 -44 -7 0 5 -4 7 -10
4 -5 -3 -10 -1 -10 4 0 6 5 11 12 11 6 0 8 3 5 6 -4 4 -13 1 -22 -6 -10 -8
-15 -9 -15 -1 0 6 -7 11 -16 11 -9 0 -12 5 -8 12 5 8 2 9 -10 5 -10 -4 -19 -1
-22 8 -4 8 -15 15 -25 15 -10 0 -47 15 -81 32 -35 18 -66 31 -70 30 -8 -2 -12
14 -9 31 1 5 -3 6 -9 2 -6 -3 -7 -12 -3 -18 4 -7 -1 -5 -12 3 -10 8 -19 14
-19 13 -3 -7 -46 11 -46 18 0 5 -3 8 -7 7 -15 -3 -63 14 -63 23 0 5 -7 6 -15
3 -9 -4 -24 4 -36 17 -11 13 -18 18 -14 12 3 -7 1 -13 -4 -13 -6 0 -11 8 -11
18 0 12 -2 14 -8 4 -7 -10 -15 -10 -38 -1 -16 7 -33 13 -37 13 -4 1 -12 8 -17
16 -9 13 -10 13 -11 0 0 -10 -3 -8 -9 5 -5 11 -9 14 -9 8 -1 -7 -5 -13 -11
-13 -5 0 -7 6 -4 13 3 8 -2 14 -10 14 -8 0 -13 -4 -10 -9 3 -4 0 -8 -5 -8 -6
0 -11 5 -11 12 0 6 -3 8 -7 5 -3 -4 -13 -1 -21 6 -13 9 -14 9 -8 0 12 -21 -27
-3 -47 21 -15 18 -16 18 -11 2 6 -16 4 -17 -14 -7 -12 6 -25 11 -29 10 -22 -4
-34 2 -27 14 5 9 4 9 -5 1 -13 -11 -61 -7 -61 6 0 3 -19 7 -42 8 -23 1 -45 8
-50 15 -4 6 -8 8 -8 2 0 -5 -5 -3 -10 5 -5 8 -10 10 -10 4 0 -17 -30 -12 -31
5 0 10 -2 12 -6 4 -6 -15 -33 -17 -33 -3 0 6 -5 10 -11 10 -5 0 -7 -6 -4 -12
4 -7 -1 -4 -9 6 -9 11 -16 15 -16 10 0 -6 -10 -10 -22 -8 -13 1 -29 3 -37 3
-8 1 -11 8 -7 19 6 16 5 16 -8 0 -15 -20 -31 -25 -20 -6 5 7 3 8 -7 2 -19 -12
-51 -5 -66 14 -10 13 -12 14 -8 2 4 -12 -3 -15 -40 -12 -25 2 -42 8 -39 13 3
5 -7 4 -21 -3 -21 -9 -28 -9 -35 1 -6 11 -9 11 -13 0 -4 -11 -6 -11 -6 1 -1
12 -3 13 -10 1 -7 -11 -14 -10 -37 5 -28 18 -29 18 -14 0 14 -18 14 -19 -7 -7
-13 6 -23 9 -23 5 0 -3 -8 0 -17 7 -14 12 -16 12 -8 0 6 -11 4 -13 -10 -8 -9
4 -25 2 -33 -5 -14 -11 -15 -10 -9 7 7 20 7 20 -8 1 -8 -11 -15 -14 -15 -7 0
7 -4 10 -9 7 -5 -4 -12 0 -14 6 -4 10 -6 10 -6 1 -1 -7 -6 -13 -12 -13 -5 0
-8 4 -4 9 3 5 0 13 -6 17 -8 4 -9 3 -5 -4 3 -6 -3 -16 -14 -22 -15 -8 -20 -8
-20 1 0 6 -7 9 -15 5 -8 -3 -19 3 -25 12 -10 15 -11 15 -6 1z m266 -6863 c0
-3 -4 -8 -10 -11 -5 -3 -10 -1 -10 4 0 6 5 11 10 11 6 0 10 -2 10 -4z"/>
<path d="M2825 6879 c-4 -6 -5 -12 -2 -15 2 -3 7 2 10 11 7 17 1 20 -8 4z"/>
<path d="M2335 6740 c-3 -5 -1 -10 4 -10 6 0 11 5 11 10 0 6 -2 10 -4 10 -3 0
-8 -4 -11 -10z"/>
<path d="M4831 6667 c2 -2 11 -8 20 -15 12 -9 16 -9 16 1 0 7 -9 14 -20 14
-11 1 -18 1 -16 0z"/>
<path d="M5446 6318 c3 -5 10 -6 15 -3 13 9 11 12 -6 12 -8 0 -12 -4 -9 -9z"/>
<path d="M5515 6289 c-4 -6 -5 -12 -2 -15 2 -3 7 2 10 11 7 17 1 20 -8 4z"/>
<path d="M1360 6190 c-9 -6 -10 -10 -3 -10 6 0 15 5 18 10 8 12 4 12 -15 0z"/>
<path d="M5875 5981 c-3 -5 -2 -12 3 -15 5 -3 9 1 9 9 0 17 -3 19 -12 6z"/>
<path d="M5920 5933 c0 -6 8 -17 18 -24 16 -13 16 -13 2 6 -8 11 -16 22 -17
24 -2 2 -3 0 -3 -6z"/>
<path d="M5973 5887 c0 -8 6 -14 14 -14 9 0 10 4 2 14 -6 7 -12 13 -14 13 -1
0 -2 -6 -2 -13z"/>
<path d="M6010 5836 c7 -7 13 -7 20 0 6 6 3 10 -10 10 -13 0 -16 -4 -10 -10z"/>
<path d="M945 5819 c-3 -4 2 -6 10 -5 21 3 28 13 10 13 -9 0 -18 -4 -20 -8z"/>
<path d="M893 5765 c0 -8 4 -12 9 -9 5 3 6 10 3 15 -9 13 -12 11 -12 -6z"/>
<path d="M6107 5739 c7 -7 15 -10 18 -7 3 3 -2 9 -12 12 -14 6 -15 5 -6 -5z"/>
<path d="M6140 5685 c0 -2 6 -8 13 -14 10 -8 14 -7 14 2 0 8 -6 14 -14 14 -7
0 -13 -1 -13 -2z"/>
<path d="M796 5628 c3 -5 10 -6 15 -3 13 9 11 12 -6 12 -8 0 -12 -4 -9 -9z"/>
<path d="M759 5593 c-13 -16 -12 -17 4 -4 16 13 21 21 13 21 -2 0 -10 -8 -17
-17z"/>
<path d="M6240 5556 c0 -2 8 -10 18 -17 15 -13 16 -12 3 4 -13 16 -21 21 -21
13z"/>
<path d="M6275 5520 c-3 -5 -1 -10 4 -10 6 0 11 5 11 10 0 6 -2 10 -4 10 -3 0
-8 -4 -11 -10z"/>
<path d="M510 5199 c0 -5 5 -7 10 -4 6 3 10 8 10 11 0 2 -4 4 -10 4 -5 0 -10
-5 -10 -11z"/>
<path d="M6553 5085 c0 -8 4 -12 9 -9 5 3 6 10 3 15 -9 13 -12 11 -12 -6z"/>
<path d="M6580 5006 c0 -2 7 -7 16 -10 8 -3 12 -2 9 4 -6 10 -25 14 -25 6z"/>
<path d="M6885 4071 c-3 -5 -2 -12 3 -15 5 -3 9 1 9 9 0 17 -3 19 -12 6z"/>
<path d="M6913 3885 c0 -8 4 -15 9 -15 4 0 8 4 8 9 0 6 -4 12 -8 15 -5 3 -9
-1 -9 -9z"/>
<path d="M6936 3713 c-6 -14 -5 -15 5 -6 7 7 10 15 7 18 -3 3 -9 -2 -12 -12z"/>
<path d="M6926 3642 c-3 -5 1 -9 9 -9 8 0 12 4 9 9 -3 4 -7 8 -9 8 -2 0 -6 -4
-9 -8z"/>
<path d="M54 3570 c0 -13 4 -16 10 -10 7 7 7 13 0 20 -6 6 -10 3 -10 -10z"/>
<path d="M6930 3540 c0 -5 5 -10 11 -10 5 0 7 5 4 10 -3 6 -8 10 -11 10 -2 0
-4 -4 -4 -10z"/>
<path d="M55 3460 c-3 -6 1 -7 9 -4 18 7 21 14 7 14 -6 0 -13 -4 -16 -10z"/>
<path d="M61 3394 c0 -11 3 -14 6 -6 3 7 2 16 -1 19 -3 4 -6 -2 -5 -13z"/>
<path d="M85 3080 c-3 -5 -1 -10 4 -10 6 0 11 5 11 10 0 6 -2 10 -4 10 -3 0
-8 -4 -11 -10z"/>
<path d="M93 2965 c0 -8 4 -12 9 -9 5 3 6 10 3 15 -9 13 -12 11 -12 -6z"/>
<path d="M6840 2746 c0 -2 7 -7 16 -10 8 -3 12 -2 9 4 -6 10 -25 14 -25 6z"/>
<path d="M6775 2431 c-3 -5 -2 -12 3 -15 5 -3 9 1 9 9 0 17 -3 19 -12 6z"/>
<path d="M256 2337 c3 -10 9 -15 12 -12 3 3 0 11 -7 18 -10 9 -11 8 -5 -6z"/>
<path d="M396 1998 c3 -5 10 -6 15 -3 13 9 11 12 -6 12 -8 0 -12 -4 -9 -9z"/>
<path d="M6495 1820 c3 -5 8 -10 11 -10 2 0 4 5 4 10 0 6 -5 10 -11 10 -5 0
-7 -4 -4 -10z"/>
<path d="M496 1798 c3 -5 10 -6 15 -3 13 9 11 12 -6 12 -8 0 -12 -4 -9 -9z"/>
<path d="M6430 1718 c0 -4 4 -8 9 -8 6 0 12 4 15 8 3 5 -1 9 -9 9 -8 0 -15 -4
-15 -9z"/>
<path d="M793 1375 c0 -8 4 -12 8 -9 4 2 10 -2 12 -8 4 -8 6 -9 6 -2 1 6 -5
17 -12 23 -10 8 -14 7 -14 -4z"/>
<path d="M5847 1002 c-20 -22 -21 -32 -5 -32 6 0 8 3 5 7 -4 3 0 15 10 25 9
10 14 18 11 18 -3 0 -12 -8 -21 -18z"/>
<path d="M1236 907 c3 -10 9 -15 12 -12 3 3 0 11 -7 18 -10 9 -11 8 -5 -6z"/>
<path d="M5699 873 c-13 -16 -12 -17 4 -4 9 7 17 15 17 17 0 8 -8 3 -21 -13z"/>
<path d="M1396 782 c-3 -5 1 -9 9 -9 8 0 12 4 9 9 -3 4 -7 8 -9 8 -2 0 -6 -4
-9 -8z"/>
<path d="M1460 726 c0 -2 8 -10 18 -17 15 -13 16 -12 3 4 -13 16 -21 21 -21
13z"/>
<path d="M1675 580 c-3 -5 -1 -10 4 -10 6 0 11 5 11 10 0 6 -2 10 -4 10 -3 0
-8 -4 -11 -10z"/>
<path d="M5076 433 c-6 -14 -5 -15 5 -6 7 7 10 15 7 18 -3 3 -9 -2 -12 -12z"/>
<path d="M4833 325 c0 -8 4 -12 9 -9 5 3 6 10 3 15 -9 13 -12 11 -12 -6z"/>
<path d="M4595 240 c3 -5 8 -10 11 -10 2 0 4 5 4 10 0 6 -5 10 -11 10 -5 0 -7
-4 -4 -10z"/>
<path d="M2495 200 c3 -5 8 -10 11 -10 2 0 4 5 4 10 0 6 -5 10 -11 10 -5 0 -7
-4 -4 -10z"/>
<path d="M3710 70 c-9 -6 -10 -10 -3 -10 6 0 15 5 18 10 8 12 4 12 -15 0z"/>
<path d="M3348 63 c6 -2 18 -2 25 0 6 3 1 5 -13 5 -14 0 -19 -2 -12 -5z"/>
</g>
</svg>
